<?xml version="1.0" encoding="UTF-8"?>
<svg width="512" height="512" viewBox="0 0 512 512" xmlns="http://www.w3.org/2000/svg">
    <!-- Book -->
    <path d="M100 100 L400 100 L400 400 L100 400 C80 400 60 380 60 360 L60 140 C60 120 80 100 100 100 Z" 
          fill="#4a90e2" stroke="#2171cd" stroke-width="20"/>
    <!-- Pages -->
    <path d="M100 120 L380 120 L380 380 L100 380" 
          fill="none" stroke="white" stroke-width="10"/>
    <!-- Chat bubble -->
    <path d="M280 200 Q380 200 380 280 Q380 360 280 360 L240 360 L220 400 L200 360 L180 360 Q80 360 80 280 Q80 200 180 200 Z" 
          fill="#2ecc71" stroke="#27ae60" stroke-width="20"/>
    <!-- Chat dots -->
    <circle cx="180" cy="280" r="15" fill="white"/>
    <circle cx="230" cy="280" r="15" fill="white"/>
    <circle cx="280" cy="280" r="15" fill="white"/>
</svg>
